<svg width="129" height="129" viewBox="0 0 129 129" fill="none" xmlns="http://www.w3.org/2000/svg">
<path d="M65.7525 57.2199L76.8655 53.0849L66.5481 39.0146L57.1426 45.6703L65.7525 57.2199Z" fill="#FFDFCF"/>
<path d="M40.6702 82.4118L50.1337 73.7348L40.4391 61.4849L31.2622 69.8317L40.6702 82.4118Z" fill="#FFDFCF"/>
<path d="M100.605 90.7999L75.327 53.4473L39.2802 79.9082L46.4491 90.0666L48.288 92.5207C52.6228 98.3057 58.8768 102.199 65.826 103.439L67.4338 103.726C67.9423 103.816 68.4002 104.101 68.7175 104.525L73.5572 110.984L78.5717 118.853L106.122 97.026L100.605 90.7999Z" fill="#FFDFCF"/>
<path d="M78.3609 107.245L73.5212 100.786C73.2039 100.363 72.7461 100.078 72.2375 99.9873L70.6297 99.7004C63.6807 98.4607 57.4265 94.5674 53.0917 88.7824L51.2529 86.3283L44.1824 76.3096L39.2802 79.9082L46.4491 90.0666L48.288 92.5207C52.6228 98.3057 58.8768 102.199 65.826 103.438L67.4338 103.725C67.9423 103.816 68.4002 104.101 68.7175 104.524L73.5572 110.983L78.5717 118.853L83.3469 115.069L78.3609 107.245Z" fill="#FFCEBF"/>
<path d="M50.1337 73.7346L58.6627 67.6753L58.3126 67.193L49.516 55.2944L41.5028 62.8286L50.1337 73.7346Z" fill="#FFDFCF"/>
<path d="M58.3125 67.1933L58.6627 67.6757L59.2494 68.4871L68.0006 60.2673L65.8659 57.3733L65.7524 57.2201L58.6912 47.7305L49.9236 55.8465L58.3125 67.1933Z" fill="#FFDFCF"/>
<path d="M35.7358 65.7629L31.2622 69.8319L40.6702 82.4119L45.1291 78.3237L35.7358 65.7629Z" fill="#FFCEBF"/>
<path d="M54.7981 69.9256L45.9462 58.6514L41.5028 62.8293L50.1337 73.7353L58.6627 67.676L58.4253 67.3487L54.7981 69.9256Z" fill="#FFCEBF"/>
<path d="M63.7495 63.8062L63.1627 62.9948L62.8126 62.5122L54.6448 51.4766L49.9237 55.8467L58.3126 67.1936L58.6628 67.6759L59.2496 68.4873L68.0007 60.2676L67.8027 59.9988L63.7495 63.8062Z" fill="#FFCEBF"/>
<path d="M70.2111 55.2949L61.0009 42.9404L57.1426 45.6706L65.7525 57.2202L76.8655 53.0852L76.7119 52.876L70.2111 55.2949Z" fill="#FFCEBF"/>
<path d="M91.0243 81.5624L93.4319 80.2009L75.3273 53.4478L68.8666 58.1904L70.8822 58.8662C70.6861 59.8618 70.5359 60.8664 70.4335 61.871C70.1541 64.5884 70.2169 67.3372 70.611 70.0342C71.2661 74.5196 74.1156 78.3185 78.1292 80.0931C82.2114 81.8986 87.585 83.5076 91.0243 81.5624V81.5624Z" fill="#FFCEBF"/>
<path d="M100.264 83.1065L104.821 82.4116L110.212 86.8631L99.242 102.316L94.8988 98.1527L93.7911 90.1948L100.264 83.1065Z" fill="#FFDFCF"/>
<path d="M56.8284 2.38312C89.8051 -0.518914 118.799 24.9392 121.589 59.2458C124.378 93.5525 99.9068 123.715 66.9299 126.617C33.953 129.519 4.95922 104.061 2.16967 69.7546C-0.619882 35.4483 23.8517 5.2849 56.8284 2.38312V2.38312ZM65.0403 113.452C92.0378 111.555 112.085 86.1708 108.654 58.2487C107.794 51.2502 105.541 44.7625 102.213 39.06C101.695 38.1752 100.534 37.9951 99.7957 38.6902L33.4012 101.152C32.6603 101.848 32.7209 103.07 33.5183 103.696C42.2591 110.545 53.3076 114.275 65.0403 113.452V113.452ZM90.3571 27.848C91.0979 27.1526 91.0373 25.93 90.24 25.3045C81.4992 18.4548 70.4506 14.7253 58.7179 15.5485C31.7205 17.4452 11.6733 42.8297 15.1047 70.7542C15.9643 77.7503 18.2173 84.2382 21.5454 89.9405C22.0631 90.8253 23.2241 91.0054 23.9625 90.3103L90.3571 27.848Z" fill="#F37C7C"/>
<path d="M56.8284 2.38312C89.8051 -0.518914 118.799 24.9392 121.589 59.2458C124.378 93.5525 99.9068 123.715 66.9299 126.617C33.953 129.519 4.95922 104.061 2.16967 69.7546C-0.619882 35.4483 23.8517 5.2849 56.8284 2.38312V2.38312ZM65.0403 113.452C92.0378 111.555 112.085 86.1708 108.654 58.2487C107.794 51.2502 105.541 44.7625 102.213 39.06C101.695 38.1752 100.534 37.9951 99.7957 38.6902L33.4012 101.152C32.6603 101.848 32.7209 103.07 33.5183 103.696C42.2591 110.545 53.3076 114.275 65.0403 113.452V113.452ZM90.3571 27.848C91.0979 27.1526 91.0373 25.93 90.24 25.3045C81.4992 18.4548 70.4506 14.7253 58.7179 15.5485C31.7205 17.4452 11.6733 42.8297 15.1047 70.7542C15.9643 77.7503 18.2173 84.2382 21.5454 89.9405C22.0631 90.8253 23.2241 91.0054 23.9625 90.3103L90.3571 27.848Z" fill="#FD7014"/>
<path d="M54.8321 14.7538C52.8052 12.0515 49.7522 10.5017 46.456 10.5017C44.1069 10.5017 41.7902 11.3305 39.9303 12.8367C39.4179 13.252 38.9526 13.7062 38.5338 14.1913C38.3725 14.378 38.1158 14.431 37.8898 14.343C36.7162 13.8863 35.4574 13.6444 34.1599 13.6444C31.8082 13.6444 29.4905 14.4739 27.6316 15.9815C25.0328 18.0917 23.5424 21.2675 23.5424 24.6951V24.6994C23.5424 24.9486 23.404 25.1709 23.185 25.2716C22.3935 25.6356 21.6425 26.0991 20.9545 26.6566C18.7179 28.4706 17.2942 31.0817 16.945 34.0091C16.7938 35.277 16.854 36.5379 17.1107 37.7495C17.1638 38.0007 17.0527 38.2609 16.839 38.3908C16.314 38.7099 15.8134 39.0761 15.3447 39.4891C10.9812 43.3345 10.3181 50.0205 13.8311 54.7057L15.329 56.7086C16.095 51.8175 17.5707 47.1381 19.6459 42.8001L19.6454 42.7981C22.7972 36.2073 27.337 30.4072 32.9004 25.8635C31.7077 25.1257 30.3808 24.6381 28.9844 24.4326L35.959 19.7808C35.7672 21.0158 35.7771 22.2847 36.001 23.5335C41.759 19.568 48.4228 16.8738 55.6527 15.8722L54.8321 14.7538Z" fill="#FD7014"/>
<path d="M40.439 61.4847L26.7731 44.2167C25.6285 42.6893 23.9236 41.8955 22.2043 41.8955C20.8834 41.8955 19.5553 42.3628 18.4662 43.3224C16.0973 45.41 15.7327 49.0727 17.6428 51.62L31.2621 69.8313L40.439 61.4847Z" fill="#FFDFCF"/>
<path d="M22.134 47.5751C20.904 45.9344 20.6224 43.833 21.207 41.9858C20.2285 42.1634 19.2805 42.6051 18.4662 43.3228C16.0973 45.4104 15.7327 49.0731 17.6428 51.6204L31.2621 69.8317L35.7355 65.7628L22.134 47.5751Z" fill="#FFCEBF"/>
<path d="M49.516 55.2947L32.0473 31.6664C30.9075 30.1416 29.2027 29.3452 27.4809 29.3452C26.2349 29.3452 24.9816 29.7622 23.924 30.6189C21.4029 32.6638 20.9514 36.4471 22.917 39.0697L26.7734 44.2171L41.5028 62.8289L49.516 55.2947Z" fill="#FFDFCF"/>
<path d="M27.5811 35.2599C26.2873 33.5336 26.0439 31.299 26.7456 29.3936C25.75 29.5267 24.7725 29.9312 23.924 30.6185C21.4029 32.6634 20.9514 36.4467 22.917 39.0693L26.7734 44.2167L41.5028 62.8287L45.9462 58.651L27.5811 35.2599Z" fill="#FFCEBF"/>
<path d="M58.6912 47.7306L48.0087 33.375C48.0087 33.375 41.694 24.9718 41.6047 24.8286L41.5974 24.8161L38.7287 20.9876C36.7631 18.3649 33.124 17.8976 30.603 19.9425C29.1396 21.1308 28.3717 22.9043 28.3717 24.6955C28.3717 25.9892 28.7726 27.293 29.596 28.3934L32.047 31.6667L49.9236 55.8466L58.6912 47.7306Z" fill="#FFDFCF"/>
<path d="M34.0959 23.7118C33.2725 22.6114 32.8716 21.3076 32.8716 20.0139C32.8716 19.6036 32.9139 19.1947 32.9936 18.793C32.1484 18.9736 31.3293 19.3529 30.6032 19.942C29.1398 21.1303 28.3719 22.9038 28.3719 24.695C28.3719 25.9888 28.7728 27.2926 29.5962 28.3929L32.0472 31.6662L49.9238 55.8461L54.6447 51.476L34.0959 23.7118Z" fill="#FFCEBF"/>
<path d="M57.1426 45.6704L66.5484 39.0147L51.025 17.8446C49.8828 16.3222 48.1804 15.5259 46.4562 15.5259C45.2126 15.5259 43.9569 15.9429 42.8993 16.7995C40.5135 18.7339 39.9846 22.2233 41.5977 24.8158L41.6049 24.8284L57.1426 45.6704Z" fill="#FFDFCF"/>
<path d="M46.0633 22.9031L46.0561 22.8905C44.6116 20.5688 44.8922 17.5296 46.6784 15.5302C46.6052 15.5274 46.5294 15.5256 46.4562 15.5256C45.2126 15.5256 43.9569 15.9427 42.8993 16.7993C40.5135 18.7336 39.9846 22.223 41.5977 24.8156L41.6049 24.8281L57.1426 45.6701L61.0009 42.9399L46.0633 22.9031Z" fill="#FFCEBF"/>
<path d="M85.2361 38.7547L80.507 37.1147L61.6703 54.8359C62.7898 55.8199 64.1034 56.5922 65.5656 57.083L68.1356 57.9447C69.6717 58.4597 70.6303 60.0323 70.4509 61.7009C70.4449 61.7574 70.4388 61.8139 70.433 61.8704C70.2773 63.3868 70.2331 64.9235 70.2881 66.4498L93.3394 44.7637C91.2675 41.9557 88.4717 39.8791 85.2361 38.7547V38.7547Z" fill="#FD7014"/>
<path d="M99.9071 75.8552L104.821 82.4119C102.53 88.3356 99.1343 93.6764 94.8988 98.153L79.5932 78.6158C76.9802 75.2804 75.3906 71.1874 75.1375 66.8929C75.0494 65.3977 75.082 63.8964 75.2353 62.4052C75.3937 60.8542 75.6837 59.3132 76.1041 57.8012C76.4538 56.5443 75.7731 55.2272 74.5761 54.826L67.0468 52.3016C64.2191 51.352 62.4442 48.6313 62.4442 45.7248C62.4442 44.8857 62.5915 44.0316 62.9054 43.2001C64.1973 39.7835 67.834 38.0175 71.1833 39.1781L83.7087 43.5216C86.0583 44.3381 88.1133 45.8805 89.5984 47.943L90.2093 48.7921L97.8545 59.4084C99.9964 62.3828 100.892 66.1335 100.342 69.8062L99.61 74.6622C99.5473 75.0865 99.6535 75.5186 99.9071 75.8552V75.8552Z" fill="#FFDFCF"/>
<path d="M105.841 18.8916C94.1304 6.70919 78.5607 0 61.9999 0C45.4391 0 29.8696 6.70919 18.1594 18.8916C6.44914 31.074 0 47.2716 0 64.5001C0 81.7287 6.44914 97.926 18.1594 110.108C29.8696 122.291 45.4391 129 61.9999 129C78.5607 129 94.1304 122.291 105.841 110.108C117.551 97.926 124 81.7287 124 64.5001C124 47.2716 117.551 31.0743 105.841 18.8916ZM103.28 107.444C92.2534 118.915 77.5933 125.232 62.0001 125.232C46.4069 125.232 31.7468 118.915 20.7207 107.444C9.6946 95.9731 3.62217 80.7221 3.62217 64.5001C3.62217 48.2782 9.69436 33.0269 20.7207 21.5562C31.7471 10.0855 46.4067 3.76822 61.9999 3.76822C77.5931 3.76822 92.2532 10.0853 103.279 21.5562C114.305 33.0272 120.378 48.2782 120.378 64.5001C120.378 80.7221 114.306 95.9731 103.28 107.444V107.444Z" fill="#FD7014"/>
<path d="M102.587 37.9289C102.305 37.4631 101.841 37.1491 101.317 37.0695C100.794 36.9898 100.263 37.1529 99.8638 37.5149L90.4643 46.0587C88.8179 44.06 86.698 42.5731 84.2806 41.7345L80.3633 40.3757L92.7803 29.0889C93.179 28.7264 93.4055 28.2006 93.3997 27.6499C93.3942 27.099 93.1568 26.5785 92.7506 26.225C89.2246 23.1557 85.3013 20.634 81.0899 18.7298C80.1723 18.3148 79.1057 18.7524 78.7073 19.7067C78.3086 20.6611 78.729 21.771 79.6464 22.1857C82.8894 23.6521 85.948 25.5148 88.7634 27.7363L76.3789 38.9938L71.7558 37.39C70.4069 36.922 69.0216 36.8283 67.7058 37.0554L54.2514 19.0885C60.3093 17.9829 66.6486 18.1887 72.6186 19.7163C72.764 19.7535 72.9094 19.7713 73.0526 19.7713C73.8668 19.7713 74.6067 19.1958 74.8098 18.3366C75.0486 17.3262 74.4548 16.3056 73.4836 16.0571C69.7424 15.1 65.879 14.6146 62.0001 14.6146C58.513 14.6146 55.0386 15.0108 51.6608 15.7828C50.4942 14.6387 49.0147 13.9105 47.3934 13.7015C45.3783 13.4422 43.3878 14.0137 41.7865 15.3122C40.6098 16.2666 39.7791 17.5126 39.3107 18.8765C36.6274 16.3023 32.4609 16.0458 29.4898 18.4552C26.8048 20.6325 25.9098 24.3261 27.0496 27.4788C25.5575 27.5652 24.0756 28.1064 22.8105 29.1323C21.2095 30.4306 20.1902 32.2999 19.9405 34.3958C19.6993 36.4216 20.2071 38.4235 21.3681 40.0589C19.8785 40.227 18.4716 40.8497 17.2973 41.884C14.4532 44.3886 13.8048 48.5791 15.6099 51.8441C14.5763 55.9558 14.0482 60.2109 14.0482 64.4998C14.0482 73.934 16.5948 83.1221 21.4128 91.0711C21.6951 91.5368 22.1592 91.8508 22.683 91.9305C22.7702 91.9438 22.8578 91.9503 22.9447 91.9503C23.3801 91.9503 23.8042 91.787 24.1364 91.4851L65.6445 53.7549C65.9196 53.8827 66.2016 53.9963 66.4902 54.0933L74.5053 56.7823C74.047 58.3212 73.7183 59.8875 73.5152 61.4654L41.8807 90.2205C41.1273 90.9053 41.0505 92.0953 41.7085 92.8791C42.0666 93.3054 42.5687 93.5234 43.0731 93.5234C43.4959 93.5234 43.9207 93.3702 44.2641 93.0582L45.5316 91.9061L46.86 93.6789C51.4826 99.848 58.1097 103.973 65.5202 105.296L67.1282 105.582C67.1922 105.594 67.2491 105.629 67.2892 105.683L70.3669 109.79C67.6563 110.331 64.86 110.618 62.0001 110.618C52.3309 110.618 42.9092 107.311 35.2372 101.264L38.4389 98.3535C39.1921 97.6687 39.2691 96.4787 38.6111 95.6949C37.9528 94.9116 36.8089 94.8312 36.0555 95.5158L31.2197 99.9116C30.821 100.274 30.5948 100.8 30.6005 101.351C30.6061 101.901 30.8432 102.422 31.2494 102.775C39.8511 110.263 50.7719 114.386 62.0004 114.386C88.4412 114.386 109.952 92.0071 109.952 64.5003C109.952 55.0657 107.405 45.8775 102.587 37.9289V37.9289ZM100.614 41.8373C104.36 48.7311 106.33 56.5197 106.33 64.5001C106.33 69.3978 105.59 74.1183 104.224 78.5505L101.422 74.8112L102.131 70.0982C102.755 65.9478 101.724 61.6398 99.3039 58.2783L92.6668 49.0612L100.614 41.8373ZM23.3864 87.1629C19.6404 80.2688 17.6704 72.4804 17.6704 64.5001C17.6704 61.5631 17.9401 58.6448 18.4653 55.7847L20.8796 59.0065C21.4942 59.8272 22.6323 59.974 23.4214 59.3341C24.2103 58.6945 24.3513 57.5105 23.7363 56.6898L19.0702 50.4627C17.7532 48.705 18.0024 46.2001 19.6375 44.7601C20.4718 44.0256 21.5297 43.6859 22.6168 43.8023C23.7037 43.9193 24.6725 44.4775 25.3443 45.3741L38.6234 63.0958C38.9805 63.5724 39.514 63.8218 40.053 63.8218C40.442 63.8218 40.8344 63.6917 41.165 63.4236C41.9539 62.784 42.0949 61.6001 41.4798 60.7793L40.7083 59.7499C40.7083 59.7499 40.7083 59.7499 40.7083 59.7496L24.3451 37.912C23.6919 37.0403 23.404 35.9561 23.5347 34.859C23.6653 33.762 24.1987 32.7837 25.0367 32.1042C25.8746 31.4249 26.9168 31.1255 27.9713 31.2611C29.0259 31.397 29.9662 31.952 30.6194 32.8237L46.6982 54.2817L46.9409 54.6055C47.298 55.082 47.8314 55.3315 48.3704 55.3315C48.7594 55.3315 49.1518 55.2014 49.4824 54.9333C50.2713 54.2937 50.4123 53.1098 49.7973 52.289L31.0241 27.2351C29.6757 25.4354 29.986 22.8301 31.7157 21.4273C33.4459 20.0248 35.95 20.3473 37.2984 22.1468L54.4496 44.9877C54.8068 45.4623 55.339 45.7102 55.8767 45.7102C56.2672 45.7102 56.6608 45.5793 56.9921 45.3093C57.7796 44.6677 57.918 43.4835 57.3015 42.6643L43.0837 23.7372C42.0195 21.9639 42.3946 19.5975 44.0137 18.2844C44.8516 17.6048 45.8933 17.3059 46.9483 17.4413C48.0029 17.5772 48.9432 18.1321 49.5962 19.0036L64.2249 38.5381C62.9134 39.4959 61.8497 40.8492 61.2216 42.5103C60.3709 44.7596 60.453 47.3029 61.4469 49.4877C61.7715 50.2012 62.1875 50.8594 62.6758 51.45L37.1777 74.6273L28.4821 63.0227C27.8673 62.2022 26.7294 62.0553 25.9403 62.6951C25.1514 63.3347 25.0103 64.5187 25.6254 65.3394L34.4458 77.1106L23.3864 87.1629ZM74.239 108.828L70.1461 103.366C69.5499 102.57 68.6953 102.038 67.7401 101.868L66.1323 101.581C59.6131 100.419 53.7831 96.7892 49.7166 91.3622L48.2634 89.4228L73.3085 66.6573C73.4583 69.8083 74.1073 72.9407 75.2628 75.9349C75.6357 76.9008 76.6907 77.3688 77.6184 76.9814C78.5467 76.5938 78.9968 75.4965 78.6242 74.5311C76.356 68.6547 76.3166 62.1661 78.5131 56.2605C78.6928 55.7772 78.6732 55.2378 78.4588 54.7698C78.2441 54.3018 77.8539 53.9466 77.3796 53.7873L67.6019 50.5069C66.3199 50.0768 65.2965 49.1423 64.7204 47.8757C64.1442 46.6091 64.0988 45.1935 64.5919 43.8897C65.5317 41.4049 68.175 40.1202 70.6103 40.9645L83.135 45.3093C85.1446 46.0064 86.8781 47.3072 88.1481 49.071L96.4047 60.5372C98.243 63.0905 99.0257 66.3628 98.5516 69.5153L97.8219 74.3693C97.6809 75.3038 97.9207 76.268 98.4802 77.0143L102.733 82.6898C97.5174 95.2809 87.0619 104.991 74.239 108.828V108.828Z" fill="#FD7014"/>
</svg>
