<svg width="124" height="120" viewBox="0 0 124 120" fill="none" xmlns="http://www.w3.org/2000/svg">
<g clip-path="url(#clip0)">
<path d="M123.495 51.1779L102.74 25.0872C101.972 24.1223 100.571 23.8842 99.5087 24.5379L86.1089 32.785H68.6326C68.4065 32.785 68.1814 32.8317 67.9638 32.893L54.4136 36.6677L40.3534 32.9461L26.6916 24.5379C25.6472 23.8952 24.2716 24.1131 23.4949 25.0451L0.539142 52.5622C-0.28581 53.551 -0.149579 54.9948 0.845661 55.8233L12.8775 65.8438L23.6718 79.9209C20.5149 83.1756 20.5764 88.309 23.861 91.4886C25.317 92.8967 27.1684 93.6923 29.0728 93.8772C29.0066 94.2947 28.9725 94.7186 28.9725 95.1489C28.9725 97.37 29.8665 99.4583 31.489 101.028C33.1124 102.599 35.2703 103.465 37.5655 103.465C37.5967 103.465 37.6269 103.463 37.6572 103.462C37.6563 103.519 37.6534 103.574 37.6534 103.631C37.6534 105.852 38.5474 107.941 40.1699 109.512C41.7933 111.082 43.9513 111.947 46.2464 111.947C46.6995 111.947 47.1479 111.911 47.5879 111.845C47.7742 113.695 48.5982 115.495 50.0589 116.908C51.7334 118.53 53.9339 119.34 56.1344 119.34C58.3349 119.34 60.5354 118.53 62.2109 116.908L63.5249 115.637L64.0765 116.067C65.7377 117.624 67.8947 118.402 70.0517 118.402C72.2522 118.402 74.4527 117.592 76.1272 115.971C77.8367 114.316 78.674 112.133 78.6389 109.96C80.883 109.993 83.1402 109.184 84.8497 107.53C86.5573 105.877 87.3946 103.695 87.3615 101.524C89.6992 101.559 91.9167 100.691 93.5713 99.0893C95.2808 97.435 96.1181 95.2514 96.0831 93.0789C98.329 93.1118 100.584 92.3025 102.294 90.6482C105.211 87.8247 105.587 83.4604 103.423 80.2386L111.305 64.2645L123.154 54.3969C124.133 53.5812 124.283 52.1676 123.495 51.1779ZM25.914 29.6365L35.7377 35.6817L14.3675 60.877L5.80388 53.7442L25.914 29.6365ZM27.2999 83.0557L30.2648 80.1864C30.3547 80.0994 30.4493 80.0171 30.5458 79.9401C31.1257 79.4824 31.8277 79.2096 32.5713 79.1446C32.5921 79.1427 32.6139 79.1427 32.6347 79.1418C32.7406 79.1336 32.8466 79.1281 32.9535 79.129C33.9695 79.1427 34.9137 79.5446 35.6138 80.2597C36.9874 81.665 36.9136 83.9611 35.4492 85.3784L32.5741 88.1607C31.12 89.5678 28.754 89.5678 27.2999 88.1607C25.8458 86.7526 25.8458 84.4629 27.2999 83.0557ZM34.9279 97.7005C34.2231 97.0193 33.8352 96.1129 33.8352 95.1489C33.8352 94.1848 34.2231 93.2785 34.9279 92.5964L40.677 87.0327C41.7782 85.9671 43.5095 85.675 44.9172 86.3241C46.3684 86.9934 47.1848 88.5177 46.972 90.0512C46.8585 90.8697 46.4649 91.6406 45.8613 92.2256L40.203 97.7005C39.4982 98.3825 38.5616 98.7579 37.5655 98.7579C36.5693 98.7579 35.6327 98.3825 34.9279 97.7005ZM43.6088 106.183C42.904 105.502 42.5161 104.595 42.5161 103.631C42.5161 102.667 42.904 101.761 43.6088 101.079L49.357 95.5151C50.5348 94.3762 52.424 94.1308 53.8658 94.9429C55.1827 95.6845 55.8724 97.1402 55.6463 98.5904C55.5223 99.3878 55.1307 100.138 54.5413 100.708L48.8839 106.183C48.1791 106.865 47.2425 107.24 46.2464 107.24C45.2502 107.24 44.3136 106.865 43.6088 106.183ZM53.4969 113.58C52.0428 112.173 52.0428 109.883 53.4969 108.476L56.4618 105.607C56.5516 105.52 56.6453 105.439 56.7418 105.362C56.7446 105.36 56.7465 105.358 56.7484 105.356C57.2309 104.977 57.7976 104.723 58.4021 104.613C58.4163 104.611 58.4305 104.609 58.4447 104.607C58.5487 104.589 58.6547 104.574 58.7606 104.565C58.8032 104.561 58.8458 104.561 58.8893 104.559C58.9763 104.554 59.0624 104.549 59.1504 104.55C60.1655 104.563 61.1106 104.964 61.8107 105.68C61.8968 105.768 61.9772 105.86 62.051 105.954C63.1692 107.368 63.0188 109.47 61.6309 110.814L58.7711 113.581C57.317 114.988 54.9509 114.987 53.4969 113.58ZM98.855 87.3202C97.4009 88.7283 95.0349 88.7274 93.5808 87.3202C93.5278 87.2689 93.472 87.2213 93.4152 87.1765L77.7809 71.8872C76.8358 70.9634 75.2966 70.9561 74.342 71.8707C73.3875 72.7844 73.3799 74.2739 74.324 75.1977L90.1277 90.6509C90.1296 90.6527 90.1315 90.6546 90.1334 90.6564C91.5875 92.0636 91.5875 94.3542 90.1334 95.7614C89.4286 96.4435 88.492 96.8188 87.4958 96.8188C86.4987 96.8188 85.5621 96.4435 84.8582 95.7614L74.2862 85.4242C73.342 84.5004 71.8028 84.4931 70.8483 85.4068C69.8937 86.3214 69.8861 87.8109 70.8303 88.7347L81.2406 98.9135C81.2935 98.9776 81.3503 99.039 81.4109 99.0976C82.8649 100.505 82.8649 102.795 81.4109 104.203C79.9558 105.61 77.5888 105.609 76.1348 104.202L70.3648 98.5592C69.4197 97.6355 67.8805 97.6272 66.926 98.5418C65.9714 99.4555 65.9638 100.945 66.908 101.869L72.5171 107.353C72.5701 107.417 72.6268 107.479 72.6883 107.538C74.1424 108.945 74.1424 111.236 72.6883 112.643C71.2343 114.051 68.8682 114.05 67.4141 112.643C67.2467 112.481 67.0499 112.356 66.8626 112.217C66.7036 112.1 66.662 112.018 66.7415 111.832C66.8219 111.642 66.942 111.471 67.0225 111.28C67.1114 111.068 67.1833 110.849 67.2533 110.63C67.626 109.467 67.7358 108.216 67.5683 107.01C67.2467 104.694 65.9307 102.605 63.9365 101.283C62.8589 100.57 61.612 100.102 60.3197 99.9261C60.946 97.2528 60.1939 94.3542 58.2375 92.3538C56.6273 90.7077 54.4524 89.7839 52.1128 89.7528C52.0276 89.7519 51.9425 89.7519 51.8564 89.7528C51.9084 87.5921 51.0967 85.4452 49.5575 83.8714C47.9464 82.2253 45.7714 81.3015 43.4328 81.2704C42.7375 81.2613 42.0355 81.3327 41.3581 81.4837C41.0687 79.5346 40.0536 77.731 38.5162 76.441C36.9884 75.1611 35.0669 74.4506 33.0207 74.4232C30.8665 74.393 28.7502 75.162 27.1504 76.56L17.7515 64.3039L40.2371 37.7938L47.4034 39.6908L38.0442 55.6732C36.9127 57.6059 36.627 59.8489 37.2391 61.9894C37.8512 64.1308 39.2873 65.9124 41.2844 67.0074C41.4092 67.0761 41.5351 67.1411 41.6628 67.2033C41.6722 67.2079 41.6817 67.2125 41.6921 67.2171C42.0279 67.3791 42.3733 67.5183 42.7233 67.6355C44.3533 68.182 46.1139 68.2415 47.8121 67.7874C50.0239 67.1951 51.8649 65.8044 52.9964 63.8726L59.0785 53.486L69.9382 54.2312L98.8559 82.2152C100.309 83.6233 100.309 85.9131 98.855 87.3202ZM99.8625 76.5344L72.7347 50.2825C72.6836 50.2322 72.6297 50.1846 72.5739 50.1397C72.1831 49.8248 71.6988 49.6344 71.1879 49.5996L57.8912 48.6868C56.9717 48.6254 56.0578 49.0988 55.6037 49.8742L48.7657 61.5527C48.2747 62.3913 47.4753 62.9946 46.515 63.2519C45.5557 63.5092 44.5492 63.3883 43.6816 62.9132C42.8151 62.438 42.1916 61.6644 41.9258 60.7351C41.6599 59.8059 41.7839 58.8317 42.2758 57.9931L51.4042 42.4026L55.1032 41.3726C55.1278 41.3653 55.1515 41.3562 55.1761 41.3488L68.9817 37.4908H85.6624L106.487 63.1091L99.8625 76.5344ZM109.672 59.4159L90.4144 35.7119L100.243 29.663L118.238 52.283L109.672 59.4159Z" fill="#FD7014"/>
<path d="M75.1226 28.3666C75.7451 28.3666 76.3676 28.1368 76.8425 27.6772L93.4513 11.6042C94.4011 10.6851 94.4011 9.1955 93.4513 8.27631C92.5015 7.35712 90.9623 7.35712 90.0124 8.27631L73.4037 24.3493C72.4538 25.2685 72.4538 26.7581 73.4037 27.6772C73.8786 28.1368 74.5011 28.3666 75.1226 28.3666Z" fill="#FD7014"/>
<path d="M47.1576 27.6772C47.6325 28.1368 48.255 28.3666 48.8775 28.3666C49.499 28.3666 50.1215 28.1368 50.5964 27.6772C51.5463 26.7581 51.5463 25.2685 50.5964 24.3493L33.9877 8.27631C33.0378 7.35712 31.4986 7.35712 30.5488 8.27631C29.599 9.1955 29.599 10.6851 30.5488 11.6042L47.1576 27.6772Z" fill="#FD7014"/>
<path d="M62.0001 28.3666C63.3425 28.3666 64.4314 27.3129 64.4314 26.0137V12.712C64.4314 11.4129 63.3425 10.3591 62.0001 10.3591C60.6576 10.3591 59.5687 11.4129 59.5687 12.712V26.0137C59.5687 27.3129 60.6576 28.3666 62.0001 28.3666Z" fill="#FD7014"/>
<path d="M59.756 4.18394C60.142 5.0894 61.1041 5.68357 62.1192 5.6323C63.122 5.58195 64.0028 4.92643 64.3131 4.00267C64.6243 3.07157 64.2856 2.01048 63.4796 1.41722C62.6575 0.811137 61.5109 0.777262 60.6509 1.32749C59.6917 1.9409 59.3199 3.16221 59.756 4.18394Z" fill="#FD7014"/>
<path d="M109.841 16.7804C110.227 17.6858 111.189 18.28 112.204 18.2287C113.207 18.1784 114.088 17.5229 114.398 16.5991C114.709 15.668 114.371 14.6069 113.565 14.0137C112.743 13.4076 111.596 13.3737 110.736 13.9239C109.777 14.5373 109.405 15.7586 109.841 16.7804Z" fill="#FD7014"/>
<path d="M0.125965 31.3661C0.394347 32.0617 1.06333 32.5181 1.76915 32.4787C2.46641 32.44 3.07882 31.9365 3.29458 31.2268C3.511 30.5115 3.27551 29.6964 2.71506 29.2406C2.14343 28.775 1.34618 28.749 0.748243 29.1717C0.0812348 29.6429 -0.17728 30.5811 0.125965 31.3661Z" fill="#FD7014"/>
</g>
<defs>
<clipPath id="clip0">
<rect width="124" height="120" fill="white"/>
</clipPath>
</defs>
</svg>
