<svg width="120" height="120" viewBox="0 0 120 120" fill="none" xmlns="http://www.w3.org/2000/svg">
<g clip-path="url(#clip0)">
<path d="M80.2459 63.598C74.8462 55.1742 65.6497 50.1443 55.6448 50.1443C45.6399 50.1443 36.4434 55.1742 31.0446 63.598L18.0331 83.8961C15.8743 87.2634 14.8782 91.1544 15.1519 95.1452C15.4257 99.1369 16.9445 102.854 19.5437 105.897C22.1447 108.938 25.5816 111.016 29.4827 111.908C33.3837 112.799 37.3828 112.418 41.0467 110.808L41.2921 110.699C50.5114 106.728 61.0464 106.764 70.242 110.808C72.6141 111.851 75.1272 112.378 77.6632 112.378C79.042 112.378 80.429 112.222 81.8032 111.909C85.7043 111.018 89.1412 108.939 91.7431 105.898C94.3432 102.858 95.863 99.1396 96.1377 95.147C96.4123 91.1544 95.4162 87.2643 93.2574 83.8952L80.2459 63.598Z" fill="#FD7014"/>
<path d="M21.5378 63.5715C25.4086 62.0847 28.3493 58.9655 29.8178 54.7879C31.2158 50.8127 31.1014 46.3248 29.4946 42.15C27.8869 37.9779 24.9627 34.5721 21.2604 32.5589C17.3712 30.4449 13.0984 30.1007 9.23399 31.5903C1.45933 34.5795 -2.10848 44.187 1.28171 53.0118C3.98984 60.0357 10.3061 64.4696 16.6919 64.4696C18.3224 64.4696 19.9576 64.1803 21.5378 63.5715Z" fill="#FD7014"/>
<path d="M46.7844 47.6688C56.5036 47.6688 64.411 38.66 64.411 27.5867C64.411 16.5106 56.5036 7.5 46.7844 7.5C37.066 7.5 29.1595 16.5106 29.1595 27.5867C29.1595 38.66 37.066 47.6688 46.7844 47.6688Z" fill="#FD7014"/>
<path d="M77.2256 52.6025H77.2265C78.7216 53.0987 80.2468 53.3359 81.7657 53.3359C88.8537 53.3359 95.7614 48.1769 98.3972 40.2484C99.9151 35.6845 99.8153 30.8587 98.1161 26.661C96.3381 22.2665 93.0432 19.0768 88.8372 17.6788C84.6304 16.2808 80.0811 16.864 76.0263 19.3194C72.1527 21.665 69.1845 25.4709 67.6684 30.0348C64.4686 39.6624 68.7561 49.7864 77.2256 52.6025V52.6025Z" fill="#FD7014"/>
<path d="M114.346 50.2589L114.343 50.2561C107.64 45.3049 97.6162 47.4509 91.9958 55.0425C86.3808 62.6377 87.2588 72.8486 93.9513 77.8034C96.3921 79.6116 99.2761 80.4758 102.228 80.4758C107.372 80.4758 112.724 77.8501 116.302 73.0216C121.916 65.4264 121.039 55.2155 114.346 50.2589V50.2589Z" fill="#FD7014"/>
</g>
<defs>
<clipPath id="clip0">
<rect width="120" height="120" fill="white"/>
</clipPath>
</defs>
</svg>
